Coordinates
version=1
nRows=21
nColumns=22
inDegrees=yes

Units are S.I. units (second, meters, Newtons, ...)
If the header above contains a line with 'inDegrees', this indicates whether rotational values are in degrees (yes) or radians (no).

endheader
time	pelvis_tilt	pelvis_list	pelvis_rotation	pelvis_tx	pelvis_ty	pelvis_tz	hip_flexion_r	hip_adduction_r	hip_rotation_r	knee_angle_r	ankle_angle_r	subtalar_angle_r	hip_flexion_l	hip_adduction_l	hip_rotation_l	knee_angle_l	ankle_angle_l	subtalar_angle_l	lumbar_extension	lumbar_bending	lumbar_rotation
      2.11000000	      1.53385685	     -4.86983809	     51.16162299	      0.77436595	      0.95394449	      0.65077020	     29.17754818	     -4.25318484	     -0.74515220	    -33.21131688	      1.29408236	      3.68982566	     -2.86527187	      3.91564192	     19.47428619	    -13.62293449	     15.33706996	     -8.49022532	     -1.72716742	      1.25738052	    -11.45699844
      2.12000000	      1.68987875	     -4.80787121	     52.06192167	      0.77935919	      0.95335615	      0.64553648	     29.35483821	     -4.16174759	     -0.81333941	    -31.75945925	      0.35236000	      4.07236807	     -3.56218390	      3.63656211	     20.12980193	    -13.44125070	     15.52283435	     -8.47829912	     -1.84924745	      1.27353338	    -11.41977338
      2.13000000	      1.84703253	     -4.74273400	     52.95277553	      0.78443844	      0.95274141	      0.64029092	     29.47751179	     -4.06060510	     -0.88255949	    -30.27406190	     -0.41134876	      4.47020389	     -4.25106391	      3.33830080	     20.75886357	    -13.27563423	     15.71249306	     -8.44807769	     -1.97512515	      1.28747311	    -11.37560290
      2.14000000	      1.99177093	     -4.69607062	     53.83913060	      0.78960072	      0.95207201	      0.63502792	     29.57529441	     -3.95175866	     -0.95288507	    -28.76447677	     -0.94994980	      4.84376852	     -4.90172671	      3.01898605	     21.37849819	    -13.13199817	     15.87494930	     -8.39515261	     -2.07379903	      1.30027648	    -11.30988271
      2.15000000	      2.13592920	     -4.63217953	     54.71111471	      0.79486041	      0.95139013	      0.62971280	     29.60463099	     -3.83578473	     -0.95856952	    -27.22729246	     -1.21666238	      5.23981354	     -5.57047428	      2.68807970	     21.97198872	    -12.97848213	     16.05819771	     -8.32298343	     -2.18335830	      1.30132263	    -11.25723558
      2.16000000	      2.26767266	     -4.57270322	     55.56941374	      0.80021819	      0.95066857	      0.62434838	     29.59284888	     -3.70886231	     -0.87917379	    -25.66759733	     -1.21982375	      5.63760058	     -6.22584379	      2.34352315	     22.55562082	    -12.82812830	     16.23335850	     -8.22503676	     -2.27636142	      1.29168252	    -11.20149572
      2.17000000	      2.38773329	     -4.50195050	     56.38683737	      0.80569371	      0.94992652	      0.61890993	     29.52612220	     -3.56620748	     -0.64644421	    -24.08898086	     -0.96990866	      6.13766890	     -6.89511751	      1.99573743	     23.08418417	    -12.65912565	     16.41135439	     -8.07658039	     -2.36674851	      1.26695525	    -11.12320158
      2.18000000	      2.48430663	     -4.47042487	     57.24586338	      0.81116330	      0.94911828	      0.61336386	     29.44653271	     -3.44043197	     -0.38029878	    -22.49170319	     -0.58404950	      6.46810382	     -7.49083852	      1.63065142	     23.65492381	    -12.53058197	     16.54840287	     -7.92783646	     -2.40235656	      1.25058220	    -11.10577251
      2.19000000	      2.56387809	     -4.43867629	     58.05430654	      0.81675592	      0.94828963	      0.60772585	     29.32926872	     -3.30050788	      0.07415999	    -20.89735933	     -0.07275695	      6.92990686	     -8.09856798	      1.26262765	     24.19117285	    -12.36877739	     16.67583266	     -7.70447708	     -2.42224574	      1.22143021	    -11.02258541
      2.20000000	      2.62406468	     -4.41108689	     58.90669052	      0.82232959	      0.94744104	      0.60195015	     29.16787944	     -3.20087829	      0.59904119	    -19.31461093	      0.48767260	      7.24908557	     -8.67206857	      0.89506956	     24.77014253	    -12.23669554	     16.76943695	     -7.49947163	     -2.42444897	      1.18433518	    -11.02520615
      2.21000000	      2.66155726	     -4.38008969	     59.74030895	      0.82797367	      0.94658112	      0.59605775	     28.97402586	     -3.11972656	      1.28399395	    -17.78028404	      1.06974187	      7.63072346	     -9.23858084	      0.53665735	     25.33889653	    -12.10338055	     16.83995043	     -7.24173907	     -2.41470903	      1.13078586	    -11.01291792
      2.22000000	      2.67024844	     -4.34923691	     60.57804648	      0.83364510	      0.94569438	      0.59003594	     28.76626822	     -3.07797289	      2.08542685	    -16.33822412	      1.64203757	      8.01604850	     -9.77709075	      0.19455626	     25.91786978	    -11.99334279	     16.89358524	     -6.94992867	     -2.38741210	      1.05777627	    -11.02747038
      2.23000000	      2.65278649	     -4.30861752	     61.42255202	      0.83935268	      0.94480047	      0.58383596	     28.54852042	     -3.08326237	      2.95608673	    -15.04348761	      2.17598589	      8.36106208	    -10.30455440	     -0.12849443	     26.52025676	    -11.90057467	     16.91496095	     -6.63355881	     -2.34937871	      0.96428330	    -11.06637797
      2.24000000	      2.61913955	     -4.26201822	     62.26766531	      0.84511586	      0.94389239	      0.57748353	     28.34367304	     -3.11725864	      3.86120103	    -13.95750119	      2.66585022	      8.64726712	    -10.81274627	     -0.43903542	     27.13681335	    -11.84746230	     16.90787196	     -6.30066505	     -2.30727099	      0.85788936	    -11.12579125
      2.25000000	      2.58700141	     -4.21169564	     63.10496421	      0.85096874	      0.94297835	      0.57095236	     28.15434062	     -3.15521959	      4.74393494	    -13.11776048	      3.07694693	      8.93462147	    -11.31557243	     -0.75624184	     27.73840357	    -11.82455489	     16.92446864	     -5.90393228	     -2.26355504	      0.75781171	    -11.19118986
      2.26000000	      2.53812876	     -4.14544875	     63.94786562	      0.85689925	      0.94206098	      0.56423253	     28.01221430	     -3.21293311	      5.54361390	    -12.60471371	      3.45500128	      9.07153092	    -11.80948413	     -1.05491153	     28.35959392	    -11.84365910	     16.85355440	     -5.56387541	     -2.22010335	      0.63793149	    -11.29707669
      2.27000000	      2.51996124	     -4.07664240	     64.77360628	      0.86296578	      0.94115971	      0.55734584	     27.89678975	     -3.22142652	      6.25820082	    -12.40173150	      3.70129016	      9.20242127	    -12.30749428	     -1.38413894	     28.95668034	    -11.90635289	     16.81411081	     -5.14546583	     -2.18772392	      0.55119496	    -11.38530560
      2.28000000	      2.47611878	     -4.01993339	     65.59375360	      0.86913358	      0.94023694	      0.55032626	     27.86677435	     -3.22123433	      6.86749910	    -12.53248117	      3.81206328	      9.22319168	    -12.76329859	     -1.69544854	     29.58098908	    -12.01396474	     16.68380017	     -4.87233257	     -2.12616537	      0.44324644	    -11.47585841
      2.29000000	      2.52977461	     -3.92139988	     66.40529818	      0.87548785	      0.93943284	      0.54311978	     27.76915637	     -3.11727042	      7.36903240	    -12.92182918	      3.78039554	      9.24057330	    -13.28164814	     -2.08625409	     30.11036890	    -12.17727768	     16.60553148	     -4.31455008	     -2.14148577	      0.41628387	    -11.57200813
      2.30000000	      2.55709553	     -3.85623006	     67.20394870	      0.88194236	      0.93861914	      0.53581074	     27.77293176	     -2.98827258	      7.78929296	    -13.59522745	      3.49306997	      9.20815240	    -13.73878634	     -2.46603281	     30.66859353	    -12.37393040	     16.41944568	     -3.93807690	     -2.10385723	      0.37660533	    -11.66327432
      2.31000000	      2.65904107	     -3.78715731	     67.97433516	      0.88856358	      0.93790154	      0.52838200	     27.76116276	     -2.75258386	      8.12673775	    -14.45989067	      2.93629074	      9.11321961	    -14.20452527	     -2.90823037	     31.17210858	    -12.63464578	     16.26479468	     -3.39481701	     -2.09356744	      0.40966787	    -11.68592327
